<mxfile host="app.diagrams.net" modified="2022-04-14T04:59:49.880Z" agent="5.0 (X11)" etag="a-nJhrNlTYoi5AWgqkJd" version="17.4.4" type="github">
  <diagram id="kgpKYQtTHZ0yAKxKKP6v" name="Page-1">
    <mxGraphModel dx="868" dy="481" grid="1" gridSize="10" guides="1" tooltips="1" connect="1" arrows="1" fold="1" page="1" pageScale="1" pageWidth="850" pageHeight="1100" math="0" shadow="0">
      <root>
        <mxCell id="0" />
        <mxCell id="1" parent="0" />
        <mxCell id="3nuBFxr9cyL0pnOWT2aG-1" value="User" style="shape=umlLifeline;perimeter=lifelinePerimeter;container=1;collapsible=0;recursiveResize=0;rounded=0;shadow=0;strokeWidth=1;" parent="1" vertex="1">
          <mxGeometry x="100" y="80" width="90" height="350" as="geometry" />
        </mxCell>
        <mxCell id="3nuBFxr9cyL0pnOWT2aG-2" value="" style="points=[];perimeter=orthogonalPerimeter;rounded=0;shadow=0;strokeWidth=1;" parent="3nuBFxr9cyL0pnOWT2aG-1" vertex="1">
          <mxGeometry x="45" y="70" width="10" height="190" as="geometry" />
        </mxCell>
        <mxCell id="3nuBFxr9cyL0pnOWT2aG-3" value="dispatch" style="verticalAlign=bottom;startArrow=oval;endArrow=block;startSize=8;shadow=0;strokeWidth=1;" parent="3nuBFxr9cyL0pnOWT2aG-1" target="3nuBFxr9cyL0pnOWT2aG-2" edge="1">
          <mxGeometry relative="1" as="geometry">
            <mxPoint x="-15" y="70" as="sourcePoint" />
          </mxGeometry>
        </mxCell>
        <mxCell id="3nuBFxr9cyL0pnOWT2aG-4" value="" style="points=[];perimeter=orthogonalPerimeter;rounded=0;shadow=0;strokeWidth=1;" parent="3nuBFxr9cyL0pnOWT2aG-1" vertex="1">
          <mxGeometry x="50" y="120" width="10" height="80" as="geometry" />
        </mxCell>
        <mxCell id="8AAEKPK9EOVyel0DEqaB-18" value="" style="points=[];perimeter=orthogonalPerimeter;rounded=0;shadow=0;strokeWidth=1;" vertex="1" parent="3nuBFxr9cyL0pnOWT2aG-1">
          <mxGeometry x="40" y="250" width="10" height="50" as="geometry" />
        </mxCell>
        <mxCell id="3nuBFxr9cyL0pnOWT2aG-5" value="form login" style="shape=umlLifeline;perimeter=lifelinePerimeter;container=1;collapsible=0;recursiveResize=0;rounded=0;shadow=0;strokeWidth=1;" parent="1" vertex="1">
          <mxGeometry x="250" y="80" width="140" height="410" as="geometry" />
        </mxCell>
        <mxCell id="8AAEKPK9EOVyel0DEqaB-6" value="" style="points=[];perimeter=orthogonalPerimeter;rounded=0;shadow=0;strokeWidth=1;" vertex="1" parent="3nuBFxr9cyL0pnOWT2aG-5">
          <mxGeometry x="65" y="70" width="10" height="120" as="geometry" />
        </mxCell>
        <mxCell id="8AAEKPK9EOVyel0DEqaB-17" value="" style="points=[];perimeter=orthogonalPerimeter;rounded=0;shadow=0;strokeWidth=1;" vertex="1" parent="3nuBFxr9cyL0pnOWT2aG-5">
          <mxGeometry x="65" y="250" width="10" height="50" as="geometry" />
        </mxCell>
        <mxCell id="8AAEKPK9EOVyel0DEqaB-26" value="else" style="swimlane;" vertex="1" parent="3nuBFxr9cyL0pnOWT2aG-5">
          <mxGeometry x="-130" y="210" width="430" height="100" as="geometry" />
        </mxCell>
        <mxCell id="3nuBFxr9cyL0pnOWT2aG-8" value="username and passowrd" style="verticalAlign=bottom;endArrow=block;entryX=-0.2;entryY=0.058;shadow=0;strokeWidth=1;entryDx=0;entryDy=0;entryPerimeter=0;" parent="1" source="3nuBFxr9cyL0pnOWT2aG-2" target="8AAEKPK9EOVyel0DEqaB-6" edge="1">
          <mxGeometry relative="1" as="geometry">
            <mxPoint x="275" y="160" as="sourcePoint" />
            <mxPoint x="305" y="160.0000000000001" as="targetPoint" />
          </mxGeometry>
        </mxCell>
        <mxCell id="3nuBFxr9cyL0pnOWT2aG-9" value="success alert" style="verticalAlign=bottom;endArrow=block;shadow=0;strokeWidth=1;exitX=0.1;exitY=0.742;exitDx=0;exitDy=0;exitPerimeter=0;" parent="1" source="8AAEKPK9EOVyel0DEqaB-6" target="3nuBFxr9cyL0pnOWT2aG-4" edge="1">
          <mxGeometry relative="1" as="geometry">
            <mxPoint x="305" y="240" as="sourcePoint" />
          </mxGeometry>
        </mxCell>
        <mxCell id="8AAEKPK9EOVyel0DEqaB-4" value="Server" style="shape=umlLifeline;perimeter=lifelinePerimeter;container=1;collapsible=0;recursiveResize=0;rounded=0;shadow=0;strokeWidth=1;" vertex="1" parent="1">
          <mxGeometry x="430" y="80" width="140" height="330" as="geometry" />
        </mxCell>
        <mxCell id="8AAEKPK9EOVyel0DEqaB-5" value="" style="points=[];perimeter=orthogonalPerimeter;rounded=0;shadow=0;strokeWidth=1;" vertex="1" parent="8AAEKPK9EOVyel0DEqaB-4">
          <mxGeometry x="65" y="70" width="10" height="150" as="geometry" />
        </mxCell>
        <mxCell id="8AAEKPK9EOVyel0DEqaB-16" value="" style="points=[];perimeter=orthogonalPerimeter;rounded=0;shadow=0;strokeWidth=1;" vertex="1" parent="8AAEKPK9EOVyel0DEqaB-4">
          <mxGeometry x="65" y="250" width="10" height="50" as="geometry" />
        </mxCell>
        <mxCell id="8AAEKPK9EOVyel0DEqaB-9" value="" style="endArrow=classic;html=1;rounded=0;entryX=0;entryY=0.044;entryDx=0;entryDy=0;entryPerimeter=0;exitX=0.9;exitY=0.058;exitDx=0;exitDy=0;exitPerimeter=0;" edge="1" parent="1" source="8AAEKPK9EOVyel0DEqaB-6" target="8AAEKPK9EOVyel0DEqaB-5">
          <mxGeometry width="50" height="50" relative="1" as="geometry">
            <mxPoint x="320" y="240" as="sourcePoint" />
            <mxPoint x="370" y="190" as="targetPoint" />
          </mxGeometry>
        </mxCell>
        <mxCell id="8AAEKPK9EOVyel0DEqaB-10" value="mengirim &lt;br&gt;&lt;div&gt;username dan password&lt;/div&gt;&lt;div&gt;ke server&lt;br&gt;&lt;/div&gt;" style="edgeLabel;html=1;align=center;verticalAlign=middle;resizable=0;points=[];" vertex="1" connectable="0" parent="8AAEKPK9EOVyel0DEqaB-9">
          <mxGeometry x="-0.193" y="-1" relative="1" as="geometry">
            <mxPoint x="17" as="offset" />
          </mxGeometry>
        </mxCell>
        <mxCell id="8AAEKPK9EOVyel0DEqaB-12" value="" style="endArrow=classic;html=1;rounded=1;exitX=0.1;exitY=0.556;exitDx=0;exitDy=0;exitPerimeter=0;entryX=1;entryY=0.75;entryDx=0;entryDy=0;entryPerimeter=0;dashed=1;" edge="1" parent="1" source="8AAEKPK9EOVyel0DEqaB-5" target="8AAEKPK9EOVyel0DEqaB-6">
          <mxGeometry width="50" height="50" relative="1" as="geometry">
            <mxPoint x="320" y="240" as="sourcePoint" />
            <mxPoint x="370" y="190" as="targetPoint" />
          </mxGeometry>
        </mxCell>
        <mxCell id="8AAEKPK9EOVyel0DEqaB-13" value="&lt;div&gt;server membuat &lt;br&gt;&lt;/div&gt;&lt;div&gt;session&lt;/div&gt;" style="edgeLabel;html=1;align=center;verticalAlign=middle;resizable=0;points=[];" vertex="1" connectable="0" parent="8AAEKPK9EOVyel0DEqaB-12">
          <mxGeometry x="0.2395" y="-4" relative="1" as="geometry">
            <mxPoint x="20" y="4" as="offset" />
          </mxGeometry>
        </mxCell>
        <mxCell id="8AAEKPK9EOVyel0DEqaB-14" value="if (username and password valid)" style="swimlane;" vertex="1" parent="1">
          <mxGeometry x="120" y="190" width="430" height="100" as="geometry">
            <mxRectangle x="120" y="190" width="220" height="23" as="alternateBounds" />
          </mxGeometry>
        </mxCell>
        <mxCell id="8AAEKPK9EOVyel0DEqaB-22" style="edgeStyle=orthogonalEdgeStyle;rounded=1;orthogonalLoop=1;jettySize=auto;html=1;entryX=1.4;entryY=0.5;entryDx=0;entryDy=0;entryPerimeter=0;dashed=1;" edge="1" parent="1" source="8AAEKPK9EOVyel0DEqaB-16" target="8AAEKPK9EOVyel0DEqaB-17">
          <mxGeometry relative="1" as="geometry" />
        </mxCell>
        <mxCell id="8AAEKPK9EOVyel0DEqaB-23" value="&lt;div&gt;error response, &lt;br&gt;&lt;/div&gt;&lt;div&gt;password salah&lt;/div&gt;" style="edgeLabel;html=1;align=center;verticalAlign=middle;resizable=0;points=[];" vertex="1" connectable="0" parent="8AAEKPK9EOVyel0DEqaB-22">
          <mxGeometry x="0.3373" relative="1" as="geometry">
            <mxPoint x="16" as="offset" />
          </mxGeometry>
        </mxCell>
        <mxCell id="8AAEKPK9EOVyel0DEqaB-24" style="edgeStyle=orthogonalEdgeStyle;rounded=1;orthogonalLoop=1;jettySize=auto;html=1;entryX=1.1;entryY=0.56;entryDx=0;entryDy=0;entryPerimeter=0;dashed=1;" edge="1" parent="1" source="8AAEKPK9EOVyel0DEqaB-17" target="8AAEKPK9EOVyel0DEqaB-18">
          <mxGeometry relative="1" as="geometry" />
        </mxCell>
        <mxCell id="8AAEKPK9EOVyel0DEqaB-25" value="error alert" style="edgeLabel;html=1;align=center;verticalAlign=middle;resizable=0;points=[];" vertex="1" connectable="0" parent="8AAEKPK9EOVyel0DEqaB-24">
          <mxGeometry x="0.1617" y="2" relative="1" as="geometry">
            <mxPoint x="19" y="-5" as="offset" />
          </mxGeometry>
        </mxCell>
      </root>
    </mxGraphModel>
  </diagram>
</mxfile>
